<svg data-v-fde0c5aa="" xmlns="http://www.w3.org/2000/svg" viewBox="0 0 300 300" class="iconLeft"><!----><defs data-v-fde0c5aa=""><!----></defs><rect data-v-fde0c5aa="" fill="#2FDF7A" x="0" y="0" width="300px" height="300px" class="logo-background-square"></rect><defs data-v-fde0c5aa=""><!----></defs><g data-v-fde0c5aa="" id="8cb87b6b-7f78-4fa7-9976-1ec318f44d5f" fill="#FFFFFF" transform="matrix(4.246153846153846,0,0,4.246153846153846,135.2904615182143,112.0818458703848)"><path d="M7.31 12.18L7.31 8.46L8.26 8.46L8.26 12.78L8.26 12.78Q7.99 12.89 7.22 13.07L7.22 13.07L7.22 13.07Q6.44 13.24 5.31 13.24L5.31 13.24L5.31 13.24Q4.35 13.24 3.54 12.91L3.54 12.91L3.54 12.91Q2.73 12.57 2.14 11.94L2.14 11.94L2.14 11.94Q1.54 11.30 1.20 10.35L1.20 10.35L1.20 10.35Q0.87 9.41 0.87 8.19L0.87 8.19L0.87 8.19Q0.87 6.97 1.23 6.03L1.23 6.03L1.23 6.03Q1.60 5.08 2.22 4.45L2.22 4.45L2.22 4.45Q2.84 3.81 3.67 3.47L3.67 3.47L3.67 3.47Q4.49 3.14 5.43 3.14L5.43 3.14L5.43 3.14Q6.51 3.14 7.21 3.37L7.21 3.37L7.21 3.37Q7.91 3.60 8.23 3.81L8.23 3.81L7.91 4.62L7.91 4.62Q7.52 4.34 6.85 4.16L6.85 4.16L6.85 4.16Q6.17 3.99 5.39 3.99L5.39 3.99L5.39 3.99Q4.66 3.99 4.02 4.26L4.02 4.26L4.02 4.26Q3.37 4.52 2.90 5.05L2.90 5.05L2.90 5.05Q2.42 5.59 2.15 6.37L2.15 6.37L2.15 6.37Q1.88 7.15 1.88 8.19L1.88 8.19L1.88 8.19Q1.88 9.16 2.10 9.93L2.10 9.93L2.10 9.93Q2.32 10.71 2.78 11.26L2.78 11.26L2.78 11.26Q3.23 11.82 3.91 12.11L3.91 12.11L3.91 12.11Q4.58 12.40 5.46 12.40L5.46 12.40L5.46 12.40Q6.17 12.40 6.66 12.33L6.66 12.33L6.66 12.33Q7.14 12.25 7.31 12.18L7.31 12.18ZM11.33 5.81L11.33 13.05L10.42 13.05L10.42 5.81L11.33 5.81ZM11.54 3.63L11.54 3.63L11.54 3.63Q11.54 3.95 11.34 4.14L11.34 4.14L11.34 4.14Q11.14 4.33 10.86 4.33L10.86 4.33L10.86 4.33Q10.58 4.33 10.39 4.14L10.39 4.14L10.39 4.14Q10.19 3.95 10.19 3.63L10.19 3.63L10.19 3.63Q10.19 3.30 10.39 3.12L10.39 3.12L10.39 3.12Q10.58 2.93 10.86 2.93L10.86 2.93L10.86 2.93Q11.14 2.93 11.34 3.12L11.34 3.12L11.34 3.12Q11.54 3.30 11.54 3.63ZM16.39 2.18L16.39 2.18L16.39 2.18Q16.98 2.18 17.35 2.28L17.35 2.28L17.35 2.28Q17.72 2.37 17.84 2.44L17.84 2.44L17.65 3.22L17.65 3.22Q17.50 3.15 17.20 3.07L17.20 3.07L17.20 3.07Q16.90 3.00 16.44 3.00L16.44 3.00L16.44 3.00Q15.47 3.00 15.06 3.49L15.06 3.49L15.06 3.49Q14.64 3.98 14.64 5.05L14.64 5.05L14.64 5.81L17.56 5.81L17.56 6.58L14.64 6.58L14.64 13.05L13.73 13.05L13.73 5.03L13.73 5.03Q13.73 3.61 14.38 2.90L14.38 2.90L14.38 2.90Q15.04 2.18 16.39 2.18ZM21.66 2.18L21.66 2.18L21.66 2.18Q22.25 2.18 22.62 2.28L22.62 2.28L22.62 2.28Q22.99 2.37 23.10 2.44L23.10 2.44L22.92 3.22L22.92 3.22Q22.76 3.15 22.46 3.07L22.46 3.07L22.46 3.07Q22.16 3.00 21.70 3.00L21.70 3.00L21.70 3.00Q20.73 3.00 20.32 3.49L20.32 3.49L20.32 3.49Q19.91 3.98 19.91 5.05L19.91 5.05L19.91 5.81L22.82 5.81L22.82 6.58L19.91 6.58L19.91 13.05L19.00 13.05L19.00 5.03L19.00 5.03Q19.00 3.61 19.65 2.90L19.65 2.90L19.65 2.90Q20.30 2.18 21.66 2.18ZM26.24 13.20L26.24 13.20L26.24 13.20Q25.77 12.35 25.35 11.42L25.35 11.42L25.35 11.42Q24.92 10.50 24.55 9.55L24.55 9.55L24.55 9.55Q24.18 8.61 23.87 7.67L23.87 7.67L23.87 7.67Q23.56 6.72 23.34 5.81L23.34 5.81L24.30 5.81L24.30 5.81Q24.46 6.48 24.70 7.26L24.70 7.26L24.70 7.26Q24.93 8.04 25.23 8.86L25.23 8.86L25.23 8.86Q25.54 9.69 25.90 10.56L25.90 10.56L25.90 10.56Q26.26 11.42 26.68 12.26L26.68 12.26L26.68 12.26Q26.99 11.40 27.23 10.63L27.23 10.63L27.23 10.63Q27.47 9.86 27.67 9.09L27.67 9.09L27.67 9.09Q27.87 8.33 28.06 7.53L28.06 7.53L28.06 7.53Q28.25 6.73 28.46 5.81L28.46 5.81L29.37 5.81L29.37 5.81Q28.92 7.84 28.35 9.76L28.35 9.76L28.35 9.76Q27.78 11.68 27.10 13.27L27.10 13.27L27.10 13.27Q26.84 13.90 26.56 14.36L26.56 14.36L26.56 14.36Q26.28 14.81 25.93 15.11L25.93 15.11L25.93 15.11Q25.59 15.40 25.14 15.54L25.14 15.54L25.14 15.54Q24.68 15.68 24.07 15.68L24.07 15.68L24.07 15.68Q23.72 15.68 23.43 15.60L23.43 15.60L23.43 15.60Q23.14 15.51 23.07 15.47L23.07 15.47L23.25 14.71L23.25 14.71Q23.31 14.76 23.57 14.83L23.57 14.83L23.57 14.83Q23.83 14.91 24.11 14.91L24.11 14.91L24.11 14.91Q24.50 14.91 24.82 14.83L24.82 14.83L24.82 14.83Q25.13 14.74 25.38 14.54L25.38 14.54L25.38 14.54Q25.63 14.34 25.84 14.01L25.84 14.01L25.84 14.01Q26.04 13.69 26.24 13.20Z"></path></g><defs data-v-fde0c5aa=""><!----></defs><g data-v-fde0c5aa="" id="a27382b3-253c-4193-9b64-c674d374e1e7" stroke="none" fill="#56147F" transform="matrix(2.6870192307692307,0,0,2.6870192307692307,40,107.00769230769231)"><path d="M9.382 8.675h13.943v13.943L32 31.293V0H.707zM22.618 23.325H8.675V9.382L0 .707V32h31.293z"></path></g><!----></svg>